# xmcd
#
# Track frame offsets: 
#        150
#        17508
#        31857
#        52237
#        65356
#        78874
#        90019
#        106786
#        123195
#        145475
#        159611
#        169425
#
# Disc length: 2392 seconds
#
# Revision: 0
# Processed by: cddbd v1.4PL0 Copyright (c) Steve Scherf et al.
# Submitted via: ExactAudioCopy v0.95a2
#
DISCID=8f09560c
DTITLE=Knoxville Grass - Painted Lady
DYEAR=1900
DGENRE=Bluegrass
TTITLE0=Painted Lady
TTITLE1=Friend Of The Devil
TTITLE2=Those Memories Of You
TTITLE3=Wichita Jail
TTITLE4=I'm Going To Glory
TTITLE5=Up Around The Bend
TTITLE6=Traveling Prayer
TTITLE7=Ready For The Times
TTITLE8=Piney Wood Hills
TTITLE9=With Those Teardrops In My Eyes
TTITLE10=Down In The Valley To Pray
TTITLE11=Don't Say Goodbye
EXTD=
EXTT0=
EXTT1=
EXTT2=
EXTT3=
EXTT4=
EXTT5=
EXTT6=
EXTT7=
EXTT8=
EXTT9=
EXTT10=
EXTT11=
PLAYORDER=
